<?xml version="1.0" encoding="UTF-8"?>
<svg width="96px" height="96px" enable-background="new 0 0 96 96" version="1.1" viewBox="0 0 96 96" xml:space="preserve" xmlns="http://www.w3.org/2000/svg"><style/><defs><linearGradient id="a" x1="49.746" x2="49.587" y1="12.577" y2="82.926" gradientUnits="userSpaceOnUse"><stop stop-color="#4aade8" offset="0"/><stop stop-color="#136190" offset=".9944"/></linearGradient></defs><path d="m88 48.522c-0.11326 10.299-0.85563 21.623-7.7482 29.889-6.9742 8.0115-18.18 9.6496-28.21 10.042-10.557 0.17719-21.921 0.01925-31.215-5.6597-8.5982-5.2936-11.667-15.73-12.443-25.227-0.70115-10.793-0.85088-22.115 3.2792-32.306 3.1826-8.2109 11.164-13.477 19.563-15.157 10.326-2.1022 21.081-2.0706 31.471-0.42933 8.5082 1.3747 17.081 5.8452 20.875 13.951 3.8005 7.6735 4.3603 16.479 4.4287 24.896z" enable-background="new    " opacity=".28526"/><path d="m88 47.522c-0.08282 10.463-0.91305 21.981-8.0782 30.26-7.0319 7.6579-17.997 9.3228-27.88 9.6709-11.299 0.20524-23.664-0.014-33.148-7.0112-8.1275-6.5314-10.406-17.534-10.715-27.445-0.50451-11.207-0.21415-23.225 5.7821-33.095 5.7157-8.458 16.303-11.488 25.999-12.049 10.163-0.8035 20.68-0.45417 30.383 2.9163 7.5663 2.9119 13.515 9.5184 15.402 17.431 1.8696 6.2539 2.1935 12.838 2.2536 19.322z" fill="url(#a)"/><path d="m63.46 29.032c-1.3712 0.03566-2.6203 0.8048-3.7422 1.5312-1.653 1.3226-3.2528 2.7128-4.8848 4.0625-2.7766 2.6641-5.5251 5.361-8.2891 8.0391-3.9946 0.28684-7.9924 0.45968-12.002 0.27734-3.4978-0.29937-7.3331-0.61799-10.197-2.8574-1.1133-1.355-1.2949-3.2596-1.832-4.9375 0.72313-0.62883 1.4215-1.2982 1.9746-2.084 0.24123-0.36687 0.49669-0.78368 0.44336-1.2402-0.04679-0.34656-0.3776-0.54328-0.67773-0.65234-0.15033-0.05867-0.30655-0.08426-0.46289-0.08398-0.34396 6.22e-4 -0.6899 0.12872-0.97461 0.32031-0.60093 0.40024-1.0787 0.93936-1.5684 1.4648-0.25413-0.25218-0.54752-0.48111-0.89844-0.67383-0.41773-0.18551-0.86167-0.27827-1.3047-0.28906-1.9197-0.04677-3.8212 1.4429-3.4785 3.5781 0.11582 3.9634 1.2995 7.8869 3.0723 11.416 1.4464 2.4936 4.7907 2.1728 7.2715 2.4551 4.955 0.37602 9.9195 0.63582 14.889 0.71094-3.413 3.3132-6.6771 6.7944-8.8535 11.061-0.70386 1.3669-1.3468 2.9728-0.91797 4.5215 0.47195 1.3437 2.1329 1.436 3.3281 1.2383 1.2413-0.05599 2.2645-0.78571 3.1875-1.5488 4.2191-3.5021 7.9577-7.5419 11.623-11.607 0.96023-1.1614 2.0401-2.2422 2.9512-3.4453 7.6541 0.03315 15.453 0.64381 22.959-1.1934 2.5091-0.61889 5.6643-2.3007 5.3809-5.3301-1.1205-2.2769-4.1471-2.2349-6.3359-2.5488-5.5865-0.32604-11.151 0.04483-16.713 0.5293 0.87969-0.88369 1.7521-1.7743 2.6074-2.6816 1.5793-1.6076 2.9586-3.3939 4.209-5.2656 0.50512-0.79877 1.2309-1.5273 1.2617-2.5273 0.20804-1.0809-0.67498-2.141-1.75-2.2344-0.0925-0.0044-0.18398-0.0063-0.27539-0.0039zm-0.24414 0.95117c0.67573-0.01464 1.3712 0.44223 1.2266 1.2031-0.20173 1.1537-0.9516 2.1169-1.6055 3.0566-2.2007 2.8649-4.8499 5.3448-7.5879 7.6914-2.2435 0.20415-4.4882 0.40405-6.7324 0.58594l4.9531-4.9258c2.0569-2.0997 4.2529-4.0546 6.3926-6.0684 0.83194-0.69402 1.8572-1.1719 2.9004-1.4551 0.14343-0.05572 0.29719-0.08451 0.45312-0.08789zm-39.475 1.8398c0.16994 0.0068 0.41668 0.07184 0.42578 0.27734-0.02568 0.29193-0.23384 0.52264-0.4043 0.74609-0.46598 0.54606-0.99206 1.0366-1.5371 1.5039-0.14266-0.32728-0.31192-0.63642-0.51562-0.92578 0.27528-0.35708 0.57214-0.69675 0.90234-1.0039 0.31885-0.2787 0.68449-0.58492 1.1289-0.59766zm-4.752 1.5469c1.344 0.09134 2.5062 2.1122 2.4395 3.7031 0.49928 2.6537 2.1475 5.4021 5.0215 5.8516 7.5669 1.815 15.463 1.5205 23.162 0.89844 8.5976-0.86434 17.268-1.7706 25.91-1.1152-0.39302 0.24969-0.80219 0.47381-1.2305 0.65625-1.1302 0.40962-2.3471 0.58081-3.4219 1.1387-0.24009 0.13813-0.50066 0.3093-0.5957 0.58398-0.1588 0.32941 0.21125 0.56012 0.50586 0.51172 0.8016-0.01841 1.5552-0.32178 2.3105-0.55664 1.0982-0.31151 2.216-0.60994 3.2188-1.1719 0.51981-0.27353 1.0302-0.56256 1.5371-0.85938 1.4156 0.52425 2.3364 1.6965 0.44141 2.9922-3.7937 2.7229-8.7164 2.7484-13.197 3.0098-4.0462 0.13607-8.0935 0.03498-12.141 0.03711 0.0016-0.0028 0.0042-5e-3 0.0059-0.0078 0.44516-0.82359 0.77755-1.5131 0.77014-2.4574 0 0-8.9849-0.10102-9.0963-0.05623-0.10519 0.04227-2.4453 2.2071-2.4453 2.2071-0.13136 0.01892-0.2666 0.04094-0.46289 0.08789-6.7058 0.19966-13.405-0.53666-20.043-1.4005-2.6496-0.45545-3.0782-3.6193-3.8164-5.7246-0.53967-2.34-1.474-4.8706-0.59375-7.2344 0.46597-0.69654 0.96441-1.0232 1.4492-1.0859 0.0909-0.01176 0.18188-0.0139 0.27148-0.0078zm1.2324 1.8672c-0.07812 0.0017-0.15454 0.01163-0.22852 0.02734-0.55347 0.09798-0.98959 0.47706-1.4219 0.80859-0.40882 0.32982-0.75425 0.75571-0.91016 1.2637-0.15212 0.40606-0.17173 0.84996-0.08789 1.2734 0.05836 0.36988 0.15529 0.73289 0.27344 1.0879 0.0032-0.0017 0.0065-0.0041 0.0098-0.0059 0.03939 0.11521 0.13086 0.21041 0.26367 0.24609 0.37121 0.12236 0.75952-0.05087 1.0879-0.2168 0.33286-0.17556 0.64355-0.4078 0.86328-0.7168 0.35958-0.59867 0.86457-1.1174 1.0957-1.7871 0.15102-0.50512 0.09354-1.0594-0.0918-1.5469-0.16163-0.31194-0.51498-0.44116-0.85352-0.43359zm-0.125 0.79102c0.08032 0.0015 0.16065 0.01827 0.23828 0.05469 0.25939 0.11818 0.33831 0.43659 0.20703 0.67969-0.2103 0.57293-0.57953 1.0728-0.9707 1.5352-0.17951 0.17813-0.32769 0.41372-0.55273 0.53125-0.22948 0.08564-0.50111 0.13314-0.72656 0.01172-0.07073-0.26024-0.15867-0.52204-0.07031-0.78906 0.17335-0.70392 0.62563-1.3235 1.1992-1.7578 0.19043-0.13904 0.43482-0.2702 0.67578-0.26562zm25.254 11.629c2.1978 0.0051 4.3959 0.01058 6.5938 0.01563-1.3888 2.515-3.3295 4.6785-5.1875 6.8555-3.1171 3.489-6.3485 6.9071-9.9727 9.877-0.84045 0.72019-1.8523 1.2871-2.9922 1.248-1.038 0.17263-1.7215-0.87634-1.4492-1.8086 0.27393-1.8545 1.3618-3.4533 2.3496-5.002 2.9279-4.2859 7.0479-7.518 10.658-11.186z" fill="#fff"/><path d="m23.039 44.263c-0.10526-5.34e-4 -0.21045 0.03693-0.28516 0.11328-0.08493 0.07474-0.13206 0.18614-0.13086 0.29883-0.0017 0.1648 0.09405 0.33467 0.25195 0.39453 0.10585 0.05111 0.23458 0.04812 0.33984-2e-3 0.1464-0.06621 0.2582-0.22041 0.25-0.38476-0.0013-0.01239-0.0027-0.02473-0.0039-0.03711-0.0015-0.02925-0.0073-0.05648-0.01758-0.08398-0.02735-0.11485-0.11329-0.211-0.2207-0.25781-0.05685-0.02613-0.12044-0.04069-0.18359-0.04102zm42.168 0.73633c-0.257-0.0034-0.51664 0.17694-0.55859 0.44531-0.08892 0.36893 0.28436 0.7387 0.65234 0.64648 0.24955-0.0471 0.4422-0.28515 0.4375-0.53906 0.0013-0.18115-0.09281-0.3594-0.24414-0.45898-0.08587-0.06265-0.18654-0.09244-0.28711-0.09375zm-4.5938 0.26758c-0.11979 0.0014-0.2373 0.04694-0.32227 0.13867-0.23943 0.21975-0.15204 0.65983 0.15234 0.77148 0.29428 0.13638 0.66769-0.11343 0.6543-0.4375 1.9e-4 -0.09695-0.02987-0.19434-0.08594-0.27344-0.08751-0.13181-0.24442-0.20106-0.39844-0.19922zm-32.189 0.14062c-0.2152 0.01031-0.42581 0.1639-0.46094 0.38867-0.07785 0.32303 0.24812 0.64716 0.57031 0.56641 0.2185-0.04124 0.38886-0.25034 0.38476-0.47266 0.0012-0.15852-0.0824-0.3133-0.21484-0.40039-0.08354-0.06095-0.18148-0.08672-0.2793-0.08203zm27.855 0.03125c-0.20376-0.0027-0.4101 0.14074-0.44336 0.35352-0.0717 0.29352 0.22664 0.58416 0.51758 0.51172 0.19785-0.03734 0.35136-0.22643 0.34766-0.42773 0.0011-0.14353-0.07538-0.28441-0.19531-0.36328-0.06808-0.04967-0.14683-0.07318-0.22656-0.07422zm-4.9961 0.10352c-0.09961 3e-3 -0.19843 0.03995-0.26953 0.11719-0.20596 0.18961-0.13003 0.56966 0.13281 0.66602 0.25399 0.11772 0.57601-0.09725 0.56445-0.37695l-0.0078-0.08008-0.02344-0.07617c-0.06023-0.16428-0.23047-0.25505-0.39648-0.25zm-4.8164 0.12891c-0.17544 0.0084-0.34636 0.13317-0.375 0.31641-0.06347 0.26335 0.20218 0.52872 0.46484 0.46289 0.17813-0.03362 0.31775-0.20352 0.31445-0.38476 9.51e-4 -0.12923-0.0678-0.25713-0.17578-0.32812-0.0681-0.04969-0.14877-0.07023-0.22852-0.06641zm-5.3164 0.19141c-0.2123 0.0061-0.42315 0.15291-0.45703 0.37695-0.07766 0.31612 0.24299 0.62753 0.55469 0.55078 0.21258-0.04012 0.379-0.24269 0.375-0.45898 9.83e-4 -0.15023-0.07592-0.29698-0.19922-0.38281-0.0803-0.06114-0.17694-0.08869-0.27344-0.08594zm-6.4492 0.12305c-0.2123 0.0061-0.42315 0.15291-0.45703 0.37695-0.07766 0.31612 0.24494 0.62753 0.55664 0.55078 0.21258-0.04012 0.37705-0.24269 0.37305-0.45898 9.83e-4 -0.15023-0.07592-0.29894-0.19922-0.38477-0.0803-0.06114-0.17694-0.08674-0.27344-0.08398z" fill="#fff" stroke-width=".79387"/><g><path d="m18.009 79.714c-0.79444-3.72-1.2922-7.4966-2.0705-11.219-0.4279-1.2466 1.1153-1.3615 1.9726-1.5007 2.7611-0.4516 5.5494-0.74085 8.3357-0.9884 0.89836-0.06077 1.8017-0.10939 2.7007-0.03293 0.78506 0.98802 0.79523 2.3179 1.2215 3.4648 0.79531 2.7181 1.1886 5.5421 1.2126 8.3727 0.08047 2.7439 0.02499 5.4937 0.25026 8.2318-0.50673-0.1201-1.0135-0.2402-1.5202-0.3603-0.3232-4.3227 0.40964-8.7359-0.6946-12.986-0.43782-1.881-1.0438-3.7166-1.6342-5.5537-3.4506 0.3262-6.9552 0.42237-10.326 1.2974-0.41673 0.93594 0.18434 1.9164 0.26968 2.8641 0.63487 3.1804 1.3632 6.3486 1.9229 9.5401-0.52404 0.02783-1.1452-0.85598-1.641-1.1298z" fill="#fff"/><path d="m38.204 87.081c-0.73055-3.6623-1.1302-7.3898-1.286-11.119-0.21333-1.563 1.4732-1.3214 2.4862-1.3073 4.7761-0.05135 9.5471 0.36753 14.323 0.16737 3.2521-0.05008 6.5162-0.10112 9.7599 0.1113 1.0735 0.74956 0.15364 2.3047 0.08999 3.3641-0.55018 2.302-0.78887 4.6613-0.81702 7.0242 0.17062 0.98416-0.5222 1.2849-1.3687 1.2903 0.21621-3.0619 0.13295-6.1853 0.99581-9.1598 0.27203-0.78252 0.13219-1.6278-0.87947-1.4726-4.6737-0.04525-9.354 0.02244-14.029-0.09683-3.1244-0.05305-6.2558-0.211-9.3771 0.01213-0.56365 0.97664 0.08047 2.125 0.05928 3.1732 0.39092 2.6958 0.74077 5.3975 1.0638 8.1023-0.34015-0.02981-0.6803-0.05963-1.0205-0.08945z" fill="#eaeaea"/><g fill="#fff"><path d="m73.033 83.003c-0.25446-5.9481-0.5882-11.897-0.59147-17.852-0.19338-1.1092 0.73765-1.8482 1.4441-2.5353 1.8892-1.7265 3.8647-3.3722 5.9758-4.8212 1.3294-0.17321 1.2604 1.8768 1.2022 2.8154-0.06061 1.0006-0.19568 1.9957-0.36976 2.9825 1.6083-1.5378 3.1739-3.1652 5.0536-4.3756 0.43235-0.05571 1.856-1.3796 1.6384-0.44191-0.10129 0.39263 0.05466 0.91927-0.38184 1.1373-2.0736 1.82-4.0948 3.7074-6.2701 5.4063-1.2239 0.1847-1.1219-1.4057-0.93818-2.2177 0.07834-1.1702 0.34208-2.3574 0.15472-3.5252-0.81538-0.17268-1.6251 0.87159-2.3335 1.333-1.301 1.1517-2.6666 2.3697-3.3784 3.9898-0.67399 2.2262-0.28859 4.5661-0.34638 6.8526 0.02461 3.5777 0.04922 7.1553 0.07382 10.733-0.31098 0.17308-0.62196 0.34616-0.93294 0.51925z"/><g><path d="m40.562 78.25c-0.5909 0.13794-0.08739 0.51111-0.01862 0.70286-0.15925 0.69944-0.69982 1.5841-0.06664 2.2011 0.79987 0.6264 1.8945 0.28472 2.8234 0.35269 0.89656 0.32055 1.3996-0.66067 1.2013-1.4226-0.0036-0.6541 0.1991-1.6757-0.7978-1.6196-1.0303-0.21354-2.094-0.21364-3.1416-0.21439zm15.215 0.0332c-0.63128 0.39336-0.18681 1.4526-0.48122 2.13-0.3632 0.81164 0.27873 1.6611 1.1633 1.5568 0.75769-0.06492 1.553 0.05125 2.2808-0.21022 0.64342-0.27859 0.52587-1.0845 0.66841-1.6507 0.1535-0.69846-0.47173-1.0847-1.0751-1.1301-0.76969-0.23936-1.5322-0.62041-2.355-0.59425l-0.20117-0.10156zm-7.9277 0.09375c-0.63221 0.46566-0.60094 1.4028-0.82142 2.1116-0.34344 0.62249-0.10032 1.5202 0.75533 1.3956 1.1298 0.0068 2.3359 0.1711 3.3747-0.39003 0.59832-0.46358 0.66794-1.7674-0.05247-2.0984-1.0002-0.21517-2.0217-0.31749-3.0432-0.35478 0.16205-0.24182 0.19645-0.67236-0.21293-0.66411zm-6.6641 0.5c0.8989 0.01613 1.8146 0.02945 2.6855 0.27743-0.11219 0.55228 0.24002 1.3617-0.16206 1.7695-0.90005-0.17123-1.8565 0.17672-2.7246-0.16601-0.50612-0.49823 0.23826-1.2889 0.20112-1.881zm14.891 0.12695c0.93402 0.04753 1.756 0.56209 2.6661 0.72461 0.01035 0.49344 0.1317 1.4371-0.51797 1.5373-0.76813-0.0638-1.7212 0.34046-2.3765-0.15451 0.0232-0.69783 0.24944-1.3971 0.22845-2.1074zm-8.2148 0.6582c1.0239 0.02551 2.0536 0.11856 3.0528 0.33593 0.4033 0.8628-0.48759 1.2868-1.2156 1.2663-0.73254 0.04936-1.4834 0.01612-2.2064-0.05351 0.14476-0.51094 0.23314-1.036 0.36917-1.5487zm7.6641 3.6035c-0.63134 0.19724-4.7e-4 0.54885 0.0178 0.76797 6.83e-4 0.55581-0.63766 1.4027-0.0062 1.7711 0.96447 0.30536 1.9777-0.04811 2.9648 0.03128 0.79774-0.15499 0.22592-1.1769 0.46824-1.7212-0.24115-0.63045-1.1192-0.60814-1.6963-0.7624-0.58118-0.11598-1.1712 0.0078-1.7484-0.08672zm0.92969 0.69141c0.76372 0.07175 2.1973-0.04423 1.8066 1.1191-0.5446 0.19603-1.4857 0.15162-2.1777 0.17974-0.2063-0.19413 0.068-1.0901 0.2578-1.2973l0.11329-0.0015zm-7.1406 0.34961c-0.71458 0.05672-1.4373 0.06511-2.1443 0.17762-0.78168 0.1726-0.01083 0.90305-0.38302 1.4259-0.38079 0.79452 0.55298 1.019 1.1455 1.0386 0.88812 0.12119 1.7917 0.25107 2.6859 0.19479 0.66104-0.30862 0.68908-1.1762 0.82496-1.8087 0.46208-0.9448-0.68471-1.1213-1.3565-1.014-0.25753-0.0028-0.51511-0.0096-0.77249-0.0143zm-8.4609 0.45117c-0.91143 0.13879-0.63658 1.3742-0.74024 2.043 0.62579 0.50756 1.6485 0.36931 2.4479 0.44001 0.56841-0.08741 1.5391 0.2489 1.7493-0.48308 0.1461-0.49824 0.99639-1.648-0.01172-1.5195-0.42524-0.5529-1.3336-0.33227-1.9878-0.43713-0.48617-0.0086-0.97191-0.02927-1.4575-0.04324zm8.459 0.21094c0.56702 0.12056 1.8468-0.32707 1.4143 0.61512-8.78e-4 0.67918-0.35788 1.1411-1.0514 0.89132-0.76085-0.05071-1.521-0.14584-2.2691-0.29146 0.15259-0.58609 0.01563-1.3574 0.84962-1.1289 0.35177-0.03275 0.7024-0.0883 1.0566-0.08603zm-8.4102 0.45508c1.0243 0.03639 2.0543 0.0313 3.0703 0.17973 0.15037 0.0011-0.1662 0.91786-0.42777 0.96097-0.92221 0.0219-1.8558 0.04455-2.7637-0.14647 0.02157-0.33352 0.07645-0.66347 0.12113-0.99423z"/><path d="m75.582 67.109c-0.58842 0.10617-0.22951 0.75091 0.19808 0.72198 1.0344 0.23281 2.1048 0.18512 3.155 0.12444 0.36069-0.04182 1.0924-0.20406 0.66438-0.69208-0.51885-0.11862-1.0655 0.13884-1.6097 0.07224-0.80946 0.03185-1.6228-0.02551-2.4078-0.22658zm8.2695 0.06836c-0.47326 0.16298-0.96226 0.35859-1.4788 0.21363-0.44325-0.01362-1.2693-0.40651-1.3093 0.28801 0.36073 0.42238 1.0641 0.27325 1.5838 0.40875 0.50359 0.0528 1.0327-0.07319 1.4337-0.38468 0.15388-0.19225 0.01613-0.50784-0.22945-0.52571zm-0.2832 3.6211c-0.44547 0.25521-0.98644 0.23171-1.4881 0.17803-0.37706-0.04884-1.1966-0.2911-0.99058 0.3996 0.47418 0.32052 1.1101 0.25934 1.6645 0.29403 0.41569-0.01874 1.0406-0.04622 1.1482-0.5423 0.0029-0.17815-0.156-0.33467-0.334-0.32935zm-4.875 0.48828c-0.38507 0.18477-0.8082 0.36756-1.2633 0.26971-0.51468-0.05176-1.014-0.19662-1.5257-0.26771-0.57849-0.0059-0.36466 0.76112 0.10011 0.68626 0.83726 0.13825 1.7367 0.45299 2.5634 0.10585 0.37103-0.09966 0.67289-0.68162 0.12555-0.79411zm-2.9121 3.623c-0.73815 0.27192 0.04295 0.85852 0.48828 0.88086 0.6677 0.1704 1.3787 0.13178 2.0371-0.06049 0.57902-0.08879 0.36596-0.94452-0.1543-0.6875-0.40091 0.21488-0.89766 0.20555-1.3453 0.1745-0.36984-0.01366-0.6847-0.20418-1.0258-0.30736zm2.6133 0.74414-0.0625 0.0059z"/><path d="m27.082 68.805c-0.56207 0.1239-1.1616 0.14911-1.6895 0.37114-0.81893-0.08278-0.68206 0.86018-0.81819 1.4069 0.06463 0.55058-0.32183 1.2849 0.15329 1.6921 0.52813 0.1945 1.117 0.14412 1.6746 0.18232 0.54348-0.1222 1.2241 0.13194 1.6536-0.25832 0.23693-0.50299-0.08032-1.0604-0.17935-1.5619-0.08209-0.54647-0.08192-1.1102-0.37506-1.6003-0.06783-0.18292-0.23712-0.24476-0.41938-0.23183zm-5.1465 0.5c-0.67344-0.03109-1.335 0.1295-1.9688 0.34571-0.49143 0.59525 0.03236 1.4559 0.0045 2.1695-0.1128 0.58046 0.3739 0.8857 0.89194 0.77516 0.74574 0.01272 1.4826-0.13667 2.213-0.26299 0.65167-0.34516-0.26785-1.1098-0.38409-1.5875-0.42172-0.42324-0.0036-1.3439-0.75661-1.4398zm5.041 0.1875c0.26328 0.50588 0.11891 1.108 0.34569 1.6328 0.11899 0.35174 0.28162 0.72488-0.23488 0.6183-0.63592 0.10331-1.2821 0.02148-1.9194-0.02262 0.01609-0.60603 0.07247-1.208 0.18531-1.802 0.40066-0.25071 1.089-0.31232 1.6233-0.42653zm-5.3359 0.48242c0.26782 0.18568 0.21661 0.91538 0.54988 1.2391 0.2133 0.33587 0.42654 0.65326-0.11938 0.61276-0.4177-0.01141-1.2681 0.35861-1.4412-0.07128 0.0586-0.49529-0.39926-1.3025-0.0656-1.5971 0.35502-0.08415 0.70563-0.20603 1.0763-0.18356zm-1.3926 2.0723c-0.20756 0.26082 0.33014 0.74914-0.10157 0.29298-0.02836-0.10725 0.01837-0.22386 0.10157-0.29298zm7.9434 2.9863c-0.65633 0.05767-1.4618 0.04633-1.9336 0.51374-0.12755 0.60554 0.16937 1.2704 0.1543 1.9102 0.06424 0.48462-0.08091 1.5291 0.71566 1.3224 0.52463-0.23021 1.1755-0.07881 1.5847-0.56305 0.40926-0.47258 0.21616-1.1648 0.15103-1.7252-0.22125-0.49995 0.15892-1.4998-0.67207-1.458zm-6.9434 0.43359c-0.83352 0.2013-0.31066 1.2705-0.43593 1.9065 0.07523 0.4022-0.31144 1.1175 0.30501 1.2224 0.27339 0.0884 0.99661 0.05298 1.4163-0.05354 0.6142-0.09616 1.6302-0.01024 1.4178-0.92923-0.01545-0.63056 0.11938-1.2577 0.07601-1.8863-0.27605-0.44748-0.89774-0.15747-1.3311-0.24012-0.48269-0.0042-0.96558-0.01908-1.4481-0.01967zm6.8301 0.23438c0.02565 0.6714 0.32929 1.371 0.16987 2.0391-0.26345 0.24724-0.92181 0.32852-1.1307 0.24971-0.05564-0.69318-0.09846-1.3904-0.23257-2.0739 0.37156-0.16878 0.79314-0.173 1.1934-0.21483zm-6.6328 0.43164c0.60084 0.08472 1.5399-0.13345 1.9185 0.14034-0.14794 0.47066 0.11792 1.2656-0.24016 1.517-0.56013 0.05172-1.1111 0.22213-1.6764 0.19222 0.05226-0.61494 0.01974-1.234-2e-3 -1.8496zm6.9414 4.0039c-0.55572-0.04165-1.0539 0.17971-1.526 0.4309-0.84116-0.01548-0.31294 0.95594-0.26839 1.4735 0.13757 0.40542 0.26421 1.2103 0.87053 0.92378 0.56316-0.15105 1.2545-0.20523 1.6875-0.55473 0.06261-0.63864-0.1361-1.2733-0.09579-1.9141 0.02628-0.44576-0.37568-0.32912-0.66788-0.35941zm-6.7129 0.25586c-0.41086 0.38995-0.13806 1.1808 0.13288 1.6328 0.5698 0.3566 1.3054 0.22315 1.92 0.46879 0.53018-0.15408 0.16406-0.91254 0.28117-1.3282 0.14653-0.78179-0.68923-0.65654-1.1822-0.65084-0.38768-0.0032-0.77009-0.07346-1.1518-0.1226zm6.7324 0.21289c0.40863 0.04646 0.08594 0.83864 0.2682 1.1728 0.19672 0.58095-0.66703 0.48526-1.0347 0.68322-0.72154 0.24284-0.59781-0.93928-0.76087-1.4126 0.5206-0.1582 0.93999-0.52676 1.5274-0.44343zm-6.4883 0.29492c0.01592-0.0023-0.03301 0.04082 0 0zm0.0098 0c0.50706 0.14694 1.1958-0.0095 1.6075 0.16997-0.0295 0.38772 0.19028 1.0926-0.42188 0.80665-0.4784-0.06986-1.1812-0.03208-1.1338-0.69996-0.01633-0.09227-0.04533-0.18295-0.0518-0.27666z"/></g></g></g><path d="m48 7.522c-10.299 0.11307-21.623 0.8571-29.888 7.7503-8.0108 6.9742-9.6504 18.179-10.043 28.209-0.17723 10.557-0.019052 21.922 5.6603 31.215 5.2939 8.5979 15.73 11.666 25.227 12.443 10.794 0.70093 22.116 0.85095 32.308-3.2788 8.2109-3.182 13.476-11.164 15.155-19.563 2.1012-10.326 2.0699-21.08 0.429-31.47-1.3744-8.508-5.8442-17.081-13.95-20.875-7.6739-3.8013-16.48-4.3613-24.898-4.4297zm0 79c-10.066-0.1211-21.137-0.75114-29.247-7.4634-7.8182-6.813-9.3059-17.786-9.6876-27.563-0.14945-10.592-0.081583-22.073 5.9005-31.275 5.5459-8.2788 15.98-10.788 25.334-11.432 10.478-0.50885 21.504-0.66492 31.307 3.6064 7.9694 3.345 12.655 11.449 14.095 19.67 1.786 10.182 1.786 20.731 0 30.913-1.4405 8.2207-6.1256 16.325-14.095 19.67-7.3644 3.3284-15.642 3.8118-23.608 3.8737z" enable-background="new    " fill="#334a7c" opacity=".12228"/></svg>
